<?xml version="1.0" encoding="utf-8"?>
<!-- Generator: Adobe Illustrator 18.1.1, SVG Export Plug-In . SVG Version: 6.00 Build 0)  -->
<!DOCTYPE svg PUBLIC "-//W3C//DTD SVG 1.1//EN" "http://www.w3.org/Graphics/SVG/1.1/DTD/svg11.dtd">
<svg version="1.1" id="Layer_1" xmlns="http://www.w3.org/2000/svg" xmlns:xlink="http://www.w3.org/1999/xlink" x="0px" y="0px"
	 viewBox="96 131 208 138" enable-background="new 96 131 208 138" xml:space="preserve">
<polygon fill="#9A916F" points="243,169 246.6,170.7 250.2,172.3 243,172.3 235.9,172.3 239.5,170.7 "/>
<rect x="227.2" y="192.6" fill="#FFC122" width="52.3" height="60.9"/>
<path fill="#664D25" d="M279.6,192.7l-8.9-11.4h-34.6l-9,11.7h52.1C279.3,192.9,279.4,192.7,279.6,192.7z"/>
<rect x="227.2" y="192.6" fill="#FFAAA8" width="52.3" height="3.9"/>
<rect x="235.9" y="172.3" fill="#664D25" width="14.3" height="12.8"/>
<rect x="256.9" y="172.3" fill="#664D25" width="14" height="13.2"/>
<polygon fill="#9A916F" points="263.9,169 267.4,170.7 270.8,172.3 263.9,172.3 256.9,172.3 260.4,170.7 "/>
<path fill="#FFFFFF" d="M241.8,202.3c2.6,0,4.7,2.2,4.7,5v8.1l-9.5,0.1l0.1-8.1C237.1,204.5,239.2,202.3,241.8,202.3L241.8,202.3"/>
<path fill="#A2A242" stroke="#A2A242" stroke-width="4" stroke-miterlimit="10" d="M246.4,206.3c0-2.2-2.1-4-4.6-4
	c-2.6,0-4.6,1.8-4.6,4H246.4z"/>
<path fill="#FFFFFF" d="M264.6,202.4c2.6,0,4.7,2.2,4.7,5v8.1l-9.5,0.1l0.1-8.1C259.8,204.6,261.9,202.4,264.6,202.4L264.6,202.4"/>
<path fill="#A2A242" stroke="#A2A242" stroke-width="4" stroke-miterlimit="10" d="M269.2,206.5c0-2.2-2.1-4-4.6-4
	c-2.5,0-4.6,1.8-4.6,4H269.2z"/>
<rect x="240.3" y="174.6" fill="#FFFFFF" width="5.8" height="5"/>
<rect x="261.1" y="174.7" fill="#FFFFFF" width="5.8" height="5"/>
<path fill="#FF5774" stroke="#FF5774" stroke-width="4" stroke-miterlimit="10" d="M257.9,251.6c0-7-2.1-12.7-4.6-12.7
	c-2.6,0-4.6,5.7-4.6,12.7H257.9z"/>
<path fill="#FFFFFF" d="M241.8,220.4c2.6,0,4.7,2.2,4.7,5v8.1l-9.5,0.1l0.1-8.1C237.1,222.6,239.2,220.4,241.8,220.4L241.8,220.4"/>
<path fill="#A2A242" stroke="#A2A242" stroke-width="4" stroke-miterlimit="10" d="M246.4,224.4c0-2.2-2.1-4-4.6-4
	c-2.6,0-4.6,1.8-4.6,4H246.4z"/>
<path fill="#FFFFFF" d="M264.6,220.6c2.6,0,4.7,2.2,4.7,5v8.1l-9.5,0.1l0.1-8.1C259.8,222.8,261.9,220.6,264.6,220.6L264.6,220.6"/>
<path fill="#A2A242" stroke="#A2A242" stroke-width="4" stroke-miterlimit="10" d="M269.2,224.6c0-2.2-2.1-4-4.6-4
	c-2.5,0-4.6,1.8-4.6,4H269.2z"/>
<rect x="120.5" y="215" fill="#FFA09E" width="48.9" height="38.5"/>
<rect x="123" y="191" fill="#FFA09E" width="43.4" height="24.5"/>
<rect x="128.7" y="173.2" fill="#FFA09E" width="31.9" height="17.9"/>
<polygon fill="#205D76" points="144.6,165.8 152.5,169.5 160.4,173.2 144.6,173.2 128.7,173.2 136.6,169.5 "/>
<rect x="139.8" y="235.8" fill="#205D76" width="10" height="17.5"/>
<rect x="123" y="191" fill="#205D76" width="43.4" height="2.6"/>
<rect x="120.5" y="215" fill="#205D76" width="48.9" height="2.3"/>
<path fill="#FFFFFF" d="M153.9,186.9c0-5.3-4.1-9.5-9.2-9.5s-9.2,4.3-9.2,9.5H153.9z"/>
<rect x="135.4" y="186.9" fill="#205D76" width="18.8" height="1"/>
<path fill="#FFFFFF" stroke="#FFFFFF" stroke-miterlimit="10" d="M149.7,235.9c0-2.1-2.2-3.7-4.9-3.7c-2.7,0-4.9,1.7-4.9,3.7H149.7z
	"/>
<rect x="128.8" y="197.4" fill="#FFD265" width="12.4" height="11.9"/>
<rect x="148.2" y="197.4" fill="#FFD265" width="12.4" height="11.9"/>
<ellipse fill="#FFFFFF" cx="129.6" cy="239.3" rx="5.6" ry="5.8"/>
<ellipse fill="#FFFFFF" cx="160.4" cy="239.3" rx="5.6" ry="5.8"/>
<g>
	<rect x="120.4" y="217.2" fill="#FFFFFF" width="48.9" height="1.4"/>
	<ellipse fill="#FFFFFF" cx="124.3" cy="218.7" rx="3.9" ry="1.4"/>
	<ellipse fill="#FFFFFF" cx="130.8" cy="218.8" rx="3.9" ry="1.4"/>
	<ellipse fill="#FFFFFF" cx="137.6" cy="218.8" rx="3.9" ry="1.4"/>
	<ellipse fill="#FFFFFF" cx="144.6" cy="218.7" rx="3.9" ry="1.4"/>
	<ellipse fill="#FFFFFF" cx="151.6" cy="218.8" rx="3.9" ry="1.4"/>
	<ellipse fill="#FFFFFF" cx="158.5" cy="218.8" rx="3.9" ry="1.4"/>
	<ellipse fill="#FFFFFF" cx="165.3" cy="218.8" rx="3.9" ry="1.4"/>
</g>
<g>
	<rect x="169.3" y="171.4" fill="#62D4D4" width="58.2" height="82"/>
	<polygon fill="#9A916F" points="198.4,148.7 212.9,160.1 227.4,171.5 198.4,171.5 169.3,171.5 183.9,160.1 	"/>
</g>
<path fill="#664D25" stroke="#664D25" stroke-width="0.8316" stroke-linecap="round" stroke-linejoin="round" stroke-miterlimit="10" d="
	M206.6,222.2c1.4-2.3,1.7-5.2,1.7-8.2c0-8-3.8-14.5-10.4-14.5c-6.7,0-10.4,6.5-10.4,14.5c0,3.1-0.1,5.9,1.3,8.3L206.6,222.2z"/>
<ellipse fill="#EECEA9" stroke="#EECEA9" stroke-width="1.0479" stroke-miterlimit="10" cx="190.1" cy="210.7" rx="1.6" ry="1.9"/>
<ellipse fill="#EECEA9" stroke="#EECEA9" stroke-width="1.0479" stroke-miterlimit="10" cx="205.6" cy="210.7" rx="1.6" ry="1.9"/>
<path fill="#EECEA9" stroke="#EECEA9" stroke-width="0.9711" stroke-miterlimit="10" d="M200.1,218.7c0.1,0.1,0.1,0.3,0.1,0.4v3.2
	c0,1.1-0.9,2.1-2.1,2.1c-0.6,0-1.1-0.2-1.5-0.6c-0.4-0.4-0.6-0.9-0.6-1.5v-3.2c0-0.1,0-0.3,0.1-0.4c-3.4-0.9-5.8-4.3-5.8-8.4
	c0-4.8,3.5-8.6,7.8-8.6c4.3,0,7.8,3.9,7.8,8.6C205.7,214.3,203.3,217.7,200.1,218.7z"/>
<path fill="#FF5774" stroke="#FF5774" stroke-width="0.9711" stroke-miterlimit="10" d="M206.9,232.8c0,5.9-2.7,10.7-6.1,10.7h-5.4
	c-3.4,0-6.1-4.8-6.1-10.7l0,0c0-5.9,2.7-10.7,6.1-10.7h5.4C204.1,222.1,206.9,226.9,206.9,232.8L206.9,232.8z"/>
<circle fill="#FF5774" cx="193.5" cy="211.2" r="1"/>
<circle fill="#FF5774" cx="202.3" cy="211.3" r="1"/>
<path fill="none" stroke="#333333" stroke-width="0.5" stroke-linecap="round" stroke-linejoin="round" stroke-miterlimit="10" d="
	M194.6,207.6c0-0.5,0.5-0.9,1.1-0.9c0.6,0,1.1,0.4,1.1,0.9"/>
<path fill="none" stroke="#333333" stroke-width="0.5" stroke-linecap="round" stroke-linejoin="round" stroke-miterlimit="10" d="
	M199.2,207.7c0-0.5,0.5-0.9,1.1-0.9c0.6,0,1.1,0.4,1.1,0.9"/>
<path fill="#664D25" stroke="#664D25" stroke-width="0.8316" stroke-linecap="round" stroke-linejoin="round" stroke-miterlimit="10" d="
	M200.2,202.2c0,0,3.1,6.2,5.4,6.3C207.9,208.7,205,201.1,200.2,202.2z"/>
<path fill="#664D25" stroke="#664D25" stroke-width="0.8316" stroke-linecap="round" stroke-linejoin="round" stroke-miterlimit="10" d="
	M190.1,208.5c0,0,8.1-0.8,10.1-6.3C202.1,196.6,186.6,202.7,190.1,208.5z"/>
<path fill="#FFFFFF" stroke="#FFFFFF" stroke-width="0.7861" stroke-linecap="round" stroke-linejoin="round" stroke-miterlimit="10" d="
	M200.8,213.9c0,1.6-1.3,2.9-2.9,2.9c-1.6,0-2.9-1.3-2.9-2.9C195,213.9,200.8,213.9,200.8,213.9z"/>
<path fill="#FF5774" stroke="#FF5774" stroke-width="0.5827" stroke-miterlimit="10" d="M215.1,220.2c0.8,1.3,0.5,3-0.9,3.9
	l-6.3,4.1c-1.3,0.8-3,0.5-3.9-0.9l0,0c-0.8-1.3-0.5-3,0.9-3.9l6.3-4.1C212.4,218.6,214.2,218.9,215.1,220.2L215.1,220.2z"/>
<path fill="#EECEA9" stroke="#EECEA9" stroke-width="0.6319" stroke-miterlimit="10" d="M215.7,208.6c1.5,0.3,2.5,2,2.1,3.8
	l-1.7,8.7c-0.4,1.8-1.9,3-3.4,2.7l0,0c-1.5-0.3-2.5-2-2.1-3.8l1.7-8.7C212.7,209.4,214.2,208.2,215.7,208.6L215.7,208.6z"/>
<path fill="#FF5774" stroke="#FF5774" stroke-width="0.6259" stroke-miterlimit="10" d="M191.8,224.4c1.4,0.6,2,2.5,1.3,4.1l-3.5,8
	c-0.7,1.6-2.5,2.5-3.9,1.8l0,0c-1.4-0.6-2-2.5-1.3-4.1l3.5-8C188.6,224.6,190.4,223.8,191.8,224.4L191.8,224.4z"/>
<path fill="#EECEA9" stroke="#EECEA9" stroke-width="0.6319" stroke-miterlimit="10" d="M187.1,233.5c1.5,0.3,2.5,2,2.1,3.8
	l-1.7,8.7c-0.4,1.8-1.9,3-3.4,2.7l0,0c-1.5-0.3-2.5-2-2.1-3.8l1.7-8.7C184,234.4,185.5,233.2,187.1,233.5L187.1,233.5z"/>
<path fill="#FFC122" stroke="#FFC122" stroke-width="0.9403" stroke-miterlimit="10" d="M210.7,251.6h-25.5c-0.7,0-1.3-0.6-1.3-1.3
	v-15.5c0-0.7,0.6-1.3,1.3-1.3h25.5c0.7,0,1.3,0.6,1.3,1.3v15.5C212,251,211.4,251.6,210.7,251.6z"/>
<circle fill="#FFFFFF" cx="198" cy="242.5" r="2.4"/>
<rect x="169.3" y="251" fill="#9A916F" width="58.2" height="2.3"/>
</svg>
