<?xml version="1.0" encoding="utf-8"?>
<!-- Generator: Adobe Illustrator 19.2.1, SVG Export Plug-In . SVG Version: 6.00 Build 0)  -->
<svg version="1.1" id="bg" xmlns="http://www.w3.org/2000/svg" xmlns:xlink="http://www.w3.org/1999/xlink" x="0px" y="0px"
	 viewBox="0 0 1400 980" style="enable-background:new 0 0 1400 980;" xml:space="preserve">
<style type="text/css">
	.st0{fill:#7CCFDB;}
	.st1{fill:#FFFFFF;}
	.st2{fill:#136B7F;}
	.st3{fill:#65BC46;}
	.st4{fill:#B1D351;}
	.st5{fill:#00B25E;}
	.st6{fill:#008F49;}
	.st7{fill:#DEAE5D;}
	.st8{fill:#726658;}
	.st9{fill:#007C38;}
	.st10{fill:#684C46;}
	.st11{fill:#ED8348;}
	.st12{fill:#C96F3C;}
	.st13{fill:#EF4632;}
	.st14{fill:#A42D1C;}
	.st15{fill:#F8F4C5;}
	.st16{fill:#63CDF6;}
	.st17{fill:#ED4D2E;}
	.st18{fill:#442E2A;}
	.st19{fill:#A6C9B2;}
	.st20{fill:#8CB496;}
	.st21{fill:#5D3720;}
	.st22{fill:#825035;}
	.st23{fill:#FDFAE2;}
	.st24{fill:#007D42;}
	.st25{fill:#4D2B15;}
</style>
<polygon class="st0" points="0,0 0,749.3 0,805.6 0,980 1400,980 1400,805.6 1400,749.3 1400,0 "/>
<g>
	<path class="st1" d="M479.4,72.5c-1,0-1.9,0.1-2.8,0.2c-2.9-18.6-19-32.8-38.4-32.8c-16.3,0-30.2,10-36,24.3
		c-7.5-3.3-15.7-5.1-24.4-5.1c-33.7,0-61.1,27.3-61.1,61.1c0,33.7,27.3,61.1,61.1,61.1c19.3,0,36.5-9,47.7-23
		c5.7,5.1,13.3,8.2,21.5,8.2c17.9,0,32.4-14.5,32.4-32.4c0-3.3-0.5-6.6-1.4-9.6c0.5,0,1,0.1,1.4,0.1c14.4,0,26-11.6,26-26
		C505.4,84.1,493.8,72.5,479.4,72.5z"/>
	<path class="st1" d="M631.8,37.8c-4.8,7.2-6.2,15.7-4.6,23.6c-10.1,4.8-19,12.2-25.6,22.2c-19.1,29-11.1,68,17.9,87.2
		c26.8,17.7,62.2,12.1,82.5-11.7c0.1,0.1,0.3,0.2,0.4,0.3c19.8,13.1,46.5,7.6,59.6-12.2c13.1-19.8,7.6-46.5-12.2-59.6
		c-13.1-8.7-29.2-9.1-42.4-2.8c-4.6-7.4-10.8-13.9-18.6-19c-0.3-0.2-0.7-0.4-1-0.6c4.4-13.2-0.2-28.2-12.4-36.2
		C660.9,19.3,641.4,23.3,631.8,37.8z"/>
	<path class="st1" d="M1282.2,54c-27.5,0-51.4,15.3-63.8,37.8c-11.8-14.9-30-24.5-50.5-24.5c-35.5,0-64.3,28.8-64.3,64.3
		c0,35.5,28.8,64.3,64.3,64.3c1.3,0,2.6,0,3.8-0.1c6.6,24,28.6,41.7,54.8,41.7c24.8,0,45.9-15.9,53.6-38c0.7,0,1.3,0.1,2,0.1
		c40.2,0,72.7-32.6,72.7-72.7C1354.9,86.6,1322.4,54,1282.2,54z"/>
</g>
<path class="st2" d="M149.7,456.5c0,0,255.8-244.6,312-246.6c56.1-2,319.7,246.6,319.7,246.6H149.7z"/>
<path class="st2" d="M557.3,464.2c0,0,341.5-326.5,416.5-329.2c74.9-2.6,426.7,329.2,426.7,329.2H557.3z"/>
<path class="st3" d="M669,229.9c-73.7-1.9-84.2,133.4-187.8,133.4c-103.5,0-187.8-203.4-277.3-203.4
	c-70.8,0-166.8,156.8-203.9,222.3v433.5h1400V422.9C769.3,422.9,742.7,231.8,669,229.9z"/>
<path class="st4" d="M1400.1,467.7c-30.6-51.4-93.4-117.3-214.2-117.3c-198.2,0-270.1,163.1-488.8,163.1
	C478.3,513.5,407.2,375,238.9,375c-114.4,0-197.4,37.3-238.8,61.1v231.7h1400V467.7z"/>
<rect x="0.1" y="698.1" class="st5" width="1400" height="53.3"/>
<rect x="0.1" y="786" class="st5" width="1400" height="194"/>
<path class="st6" d="M517.1,892.6h135.5c3.9,0,7.1,3.2,7.1,7.1s-3.2,7.1-7.1,7.1H517.1c-3.9,0-7.1-3.2-7.1-7.1
	S513.2,892.6,517.1,892.6z"/>
<path class="st6" d="M429.3,856.9h61.1c3.9,0,7.1,3.2,7.1,7.1c0,3.9-3.2,7.1-7.1,7.1h-61.1c-3.9,0-7.1-3.2-7.1-7.1
	C422.2,860.1,425.4,856.9,429.3,856.9z"/>
<path class="st6" d="M723.4,874.5h61.1c3.9,0,7.1,3.2,7.1,7.1s-3.2,7.1-7.1,7.1h-61.1c-3.9,0-7.1-3.2-7.1-7.1
	S719.5,874.5,723.4,874.5z"/>
<rect x="0.1" y="751.4" class="st7" width="1400" height="86"/>
<path class="st1" d="M170.5,58.6c0.8-2.6,1.2-5.4,1.2-8.3c0-16.3-13.2-29.6-29.6-29.6c-11.8,0-22,6.9-26.7,16.9
	C104.8,28,90.7,22.1,75.2,22.1c-33.1,0-60,26.9-60,60c0,12.6,3.9,24.3,10.5,33.9c-0.2,1.5-0.4,3.1-0.4,4.7
	c0,16.3,13.2,29.6,29.6,29.6c3.7,0,7.2-0.7,10.5-1.9c1.7,14.8,14.2,26.2,29.4,26.2c14,0,25.8-9.8,28.8-22.9c5.8,2.2,12,3.4,18.6,3.4
	c28.9,0,52.4-23.4,52.4-52.4C194.5,84.2,184.9,67.9,170.5,58.6z"/>
<path class="st1" d="M923.3,82.7c1.3-4.6,0.6-10-3.7-15.4c-9.8-7.3-20.4-3.2-24.1,4.7c-10.2-9.2-26.6-11.6-42.1,0
	c-0.2,0.2-0.4,0.4-0.6,0.6c-10.5,14-9.6,28.8-2.6,39c-0.7,4.2,0.4,9,4.5,13.7c5.4,3.9,11,4.3,15.6,2.6c0.8,7.4,7.2,13.2,14.8,13.2
	c7.1,0,13-4.9,14.5-11.6c8.4,3.2,18.8,2.3,28.9-5.5C940.7,107.9,935.4,90.5,923.3,82.7z"/>
<g>
	<g>
		<rect x="1077.6" y="542.3" class="st8" width="11.9" height="179.1"/>
	</g>
	<g>
		<ellipse class="st9" cx="1083.5" cy="491.1" rx="64.3" ry="118.1"/>
	</g>
</g>
<g>
	<g>
		<rect x="507.4" y="542.3" class="st8" width="11.9" height="179.1"/>
	</g>
	<g>
		<ellipse class="st9" cx="513.3" cy="491.1" rx="64.3" ry="118.1"/>
	</g>
</g>
<g>
	<g>
		<rect x="131.9" y="542.3" class="st8" width="11.9" height="179.1"/>
	</g>
	<g>
		<ellipse class="st9" cx="137.9" cy="491.1" rx="64.3" ry="118.1"/>
	</g>
</g>
<g>
	<g>
		<rect x="1344.1" y="516.9" class="st8" width="8.3" height="125.3"/>
	</g>
	<g>
		<ellipse class="st9" cx="1348.2" cy="481" rx="45" ry="82.6"/>
	</g>
</g>
<g>
	<path class="st5" d="M1373.8,546.1c0,65-56.1,92.6-113,92.6s-112.9-26-112.9-90.9c0-65,56-119.6,112.9-119.6
		S1373.8,481.1,1373.8,546.1z"/>
	<polygon class="st10" points="1248.3,716.8 1252.5,588.1 1184.8,533.7 1184.8,530.8 1252.5,579.9 1255.9,491.2 1260.5,486 
		1260.8,600.2 1342.9,547.2 1342.9,552.3 1260.8,609.8 1263.9,716.8 	"/>
</g>
<g>
	<path class="st5" d="M690.8,546.1c0,65-56.1,92.6-113,92.6c-56.9,0-112.9-26-112.9-90.9c0-65,56-119.6,112.9-119.6
		C634.7,428.2,690.8,481.1,690.8,546.1z"/>
	<polygon class="st10" points="565.4,716.8 569.6,588.1 501.9,533.7 501.9,530.8 569.6,579.9 572.9,491.2 577.6,486 577.9,600.2 
		660,547.2 660,552.3 577.9,609.8 580.9,716.8 	"/>
</g>
<g>
	<path class="st5" d="M55.7,428.2c-19.3,0-38.5,6.3-55.5,17.2v183.9c17,6.5,36.2,9.5,55.5,9.5c56.9,0,113-27.6,113-92.6
		C168.7,481.1,112.6,428.2,55.7,428.2z"/>
	<polygon class="st10" points="137.9,547.2 55.8,600.2 55.5,486 50.8,491.2 47.5,579.9 0.2,545.6 0.2,550.1 47.5,588.1 43.3,716.8 
		58.8,716.8 55.8,609.8 137.9,552.3 	"/>
</g>
<g>
	<g>
		<polygon class="st11" points="937.3,733.7 937.3,528.8 768.8,354.2 601,528.8 601,734.6 		"/>
		<rect x="935.7" y="520.3" class="st12" width="88.8" height="214.3"/>
		<polygon class="st13" points="769.1,343.6 572.5,528.8 603.1,528.8 769.1,374.5 		"/>
		<polygon class="st14" points="769.1,343.6 965.6,528.8 935,528.8 769.1,374.5 		"/>
		<polygon class="st13" points="769.1,343.6 965.6,528.8 1048.6,528.8 858.8,343.6 		"/>
		<g>
			<rect x="901.7" y="336.8" class="st15" width="43.9" height="82.6"/>
			<rect x="890.2" y="332.3" class="st13" width="67" height="13.4"/>
		</g>
		<g>
			<rect x="632" y="561" class="st16" width="115.3" height="120.2"/>
			<path class="st17" d="M669.4,558.6c0,26.9-21.6,68-21.6,68l0.4,57H632v-125H669.4z"/>
			<path class="st17" d="M707,558.6c0,26.9,21.6,68,21.6,68l-0.4,57h16.2v-125H707z"/>
			<path class="st1" d="M628,556.2h-0.8V686H751h1.1V556.2H628z M742.4,565.8v46.7l-50.3,0v-46.8H742.4z M636.8,565.8h46.9v46.8
				h-46.9v-46V565.8z M683.7,676.3h-46.9v-55.2h46.9V676.3z M692.2,676.3v-55.2h50.3v55.2H740H692.2z"/>
		</g>
		<g>
			<rect x="787.9" y="551.1" class="st18" width="115.7" height="183.5"/>
			<rect x="795.7" y="558.6" class="st10" width="99.5" height="176"/>
			<rect x="804.7" y="565.5" class="st18" width="79.7" height="85.5"/>
			<rect x="804.7" y="662.1" class="st18" width="79.7" height="64"/>
		</g>
	</g>
	<circle class="st1" cx="803.7" cy="656.6" r="4"/>
</g>
<g>
	<g>
		<polygon class="st19" points="450.6,733.7 450.6,528.8 282.1,354.2 114.3,528.8 114.3,734.6 		"/>
		<rect x="449" y="520.3" class="st20" width="88.8" height="214.3"/>
		<polygon class="st13" points="282.4,343.6 85.9,528.8 116.4,528.8 282.4,374.5 		"/>
		<polygon class="st14" points="282.4,343.6 478.9,528.8 448.4,528.8 282.4,374.5 		"/>
		<polygon class="st13" points="282.4,343.6 478.9,528.8 561.9,528.8 372.2,343.6 		"/>
		<g>
			<rect x="158.7" y="575" class="st16" width="88.4" height="92.1"/>
			<rect x="196.3" y="574.9" class="st1" width="8.3" height="92.2"/>
			<path class="st1" d="M155,571.3v99.6h95.9v-99.6H155z M243.5,663.8h-81.3v-85.6h81.3V663.8z"/>
		</g>
		<g>
			<rect x="462.5" y="588.8" class="st16" width="61.9" height="64.5"/>
			<rect x="488.8" y="588.8" class="st1" width="5.8" height="64.6"/>
			<path class="st1" d="M459.9,586.2v69.7H527v-69.7H459.9z M521.8,651h-56.9v-60h56.9V651z"/>
		</g>
		<g>
			<rect x="301.2" y="551.1" class="st21" width="115.7" height="183.5"/>
			<rect x="309.1" y="558.6" class="st22" width="99.5" height="176"/>
			<rect x="318" y="565.5" class="st21" width="79.7" height="160.6"/>
		</g>
	</g>
	<circle class="st1" cx="317" cy="656.6" r="4"/>
</g>
<g>
	<g>
		<polygon class="st23" points="1307.9,691.3 1302.6,687.3 1297.2,691.3 1297.2,746.4 1307.9,746.4 		"/>
		<polygon class="st23" points="1283.5,691.3 1278.2,687.3 1272.9,691.3 1272.9,746.4 1283.5,746.4 		"/>
		<polygon class="st23" points="1259.2,691.3 1253.9,687.3 1248.6,691.3 1248.6,746.4 1259.2,746.4 		"/>
		<polygon class="st23" points="1234.9,691.3 1229.6,687.3 1224.2,691.3 1224.2,746.4 1234.9,746.4 		"/>
		<polygon class="st23" points="1210.5,691.3 1205.2,687.3 1199.9,691.3 1199.9,746.4 1210.5,746.4 		"/>
		<polygon class="st23" points="1186.2,691.3 1180.9,687.3 1175.6,691.3 1175.6,746.4 1186.2,746.4 		"/>
		<polygon class="st23" points="1161.9,691.3 1156.6,687.3 1151.2,691.3 1151.2,746.4 1161.9,746.4 		"/>
		<polygon class="st23" points="1137.5,691.3 1132.2,687.3 1126.9,691.3 1126.9,746.4 1137.5,746.4 		"/>
		<polygon class="st23" points="1113.2,691.3 1107.9,687.3 1102.6,691.3 1102.6,746.4 1113.2,746.4 		"/>
		<polygon class="st23" points="1088.9,691.3 1083.6,687.3 1078.2,691.3 1078.2,746.4 1088.9,746.4 		"/>
		<polygon class="st23" points="1064.5,691.3 1059.2,687.3 1053.9,691.3 1053.9,746.4 1064.5,746.4 		"/>
		<polygon class="st23" points="1040.2,691.3 1034.9,687.3 1029.6,691.3 1029.6,746.4 1040.2,746.4 		"/>
		<polygon class="st23" points="1015.9,691.3 1010.5,687.3 1005.2,691.3 1005.2,746.4 1015.9,746.4 		"/>
		<polygon class="st23" points="991.5,691.3 986.2,687.3 980.9,691.3 980.9,746.4 991.5,746.4 		"/>
		<polygon class="st23" points="967.2,691.3 961.9,687.3 956.6,691.3 956.6,746.4 967.2,746.4 		"/>
		<polygon class="st23" points="942.9,691.3 937.5,687.3 932.2,691.3 932.2,746.4 942.9,746.4 		"/>
		<polygon class="st23" points="918.5,691.3 913.2,687.3 907.9,691.3 907.9,746.4 918.5,746.4 		"/>
		<polygon class="st23" points="748.2,691.3 742.9,687.3 737.5,691.3 737.5,746.4 748.2,746.4 		"/>
		<polygon class="st23" points="723.9,691.3 718.5,687.3 713.2,691.3 713.2,746.4 723.9,746.4 		"/>
		<polygon class="st23" points="699.5,691.3 694.2,687.3 688.9,691.3 688.9,746.4 699.5,746.4 		"/>
		<polygon class="st23" points="675.2,691.3 669.9,687.3 664.5,691.3 664.5,746.4 675.2,746.4 		"/>
		<polygon class="st23" points="650.9,691.3 645.5,687.3 640.2,691.3 640.2,746.4 650.9,746.4 		"/>
		<polygon class="st23" points="626.5,691.3 621.2,687.3 615.9,691.3 615.9,746.4 626.5,746.4 		"/>
		<polygon class="st23" points="602.2,691.3 596.9,687.3 591.5,691.3 591.5,746.4 602.2,746.4 		"/>
		<polygon class="st23" points="577.9,691.3 572.5,687.3 567.2,691.3 567.2,746.4 577.9,746.4 		"/>
		<polygon class="st23" points="553.5,691.3 548.2,687.3 542.9,691.3 542.9,746.4 553.5,746.4 		"/>
		<polygon class="st23" points="529.2,691.3 523.9,687.3 518.5,691.3 518.5,746.4 529.2,746.4 		"/>
		<polygon class="st23" points="504.9,691.3 499.5,687.3 494.2,691.3 494.2,746.4 504.9,746.4 		"/>
		<polygon class="st23" points="480.5,691.3 475.2,687.3 469.9,691.3 469.9,746.4 480.5,746.4 		"/>
		<polygon class="st23" points="456.2,691.3 450.9,687.3 445.5,691.3 445.5,746.4 456.2,746.4 		"/>
		<polygon class="st23" points="431.9,691.3 426.5,687.3 421.2,691.3 421.2,746.4 431.9,746.4 		"/>
		<polygon class="st23" points="285.8,691.3 280.5,687.3 275.2,691.3 275.2,746.4 285.8,746.4 		"/>
		<polygon class="st23" points="261.5,691.3 256.2,687.3 250.9,691.3 250.9,746.4 261.5,746.4 		"/>
		<polygon class="st23" points="237.2,691.3 231.9,687.3 226.5,691.3 226.5,746.4 237.2,746.4 		"/>
		<polygon class="st23" points="212.8,691.3 207.5,687.3 202.2,691.3 202.2,746.4 212.8,746.4 		"/>
		<polygon class="st23" points="188.5,691.3 183.2,687.3 177.9,691.3 177.9,746.4 188.5,746.4 		"/>
		<polygon class="st23" points="164.2,691.3 158.9,687.3 153.5,691.3 153.5,746.4 164.2,746.4 		"/>
		<polygon class="st23" points="139.8,691.3 134.5,687.3 129.2,691.3 129.2,746.4 139.8,746.4 		"/>
		<polygon class="st23" points="115.5,691.3 110.2,687.3 104.9,691.3 104.9,746.4 115.5,746.4 		"/>
		<polygon class="st23" points="91.2,691.3 85.9,687.3 80.5,691.3 80.5,746.4 91.2,746.4 		"/>
		<polygon class="st23" points="66.8,691.3 61.5,687.3 56.2,691.3 56.2,746.4 66.8,746.4 		"/>
		<polygon class="st23" points="42.5,691.3 37.2,687.3 31.9,691.3 31.9,746.4 42.5,746.4 		"/>
		<polygon class="st23" points="18.2,691.3 12.9,687.3 7.5,691.3 7.5,746.4 18.2,746.4 		"/>
		<polygon class="st23" points="1330.5,691.3 1325.2,687.3 1319.9,691.3 1319.9,746.4 1330.5,746.4 		"/>
		<polygon class="st23" points="1353.6,691.3 1348.2,687.3 1342.9,691.3 1342.9,746.4 1353.6,746.4 		"/>
		<polygon class="st23" points="1376.6,691.3 1371.3,687.3 1366,691.3 1366,746.4 1376.6,746.4 		"/>
		<polygon class="st23" points="1400,691.3 1394.7,687.3 1389.4,691.3 1389.4,746.4 1400,746.4 		"/>
	</g>
	<rect x="907.9" y="702.4" class="st23" width="488.5" height="3.5"/>
	<rect x="0.1" y="702.4" class="st23" width="281.8" height="3.5"/>
	<rect x="425.4" y="702.4" class="st23" width="320.4" height="3.5"/>
	<rect x="0.1" y="725.6" class="st23" width="281.8" height="3.5"/>
	<rect x="425.4" y="725.6" class="st23" width="320.4" height="3.5"/>
	<rect x="907.9" y="725.6" class="st23" width="488.5" height="3.5"/>
</g>
<g>
	<circle class="st1" cx="281.9" cy="457.2" r="37.8"/>
	<circle class="st16" cx="281.9" cy="457.2" r="30.3"/>
</g>
<g>
	<path class="st24" d="M1400.1,632.4c-22.7-10.7-47.1-16.7-71.7-16.7c-93.9,0-186.2,90-186.2,197.2c0,107.2,92.4,150,186.2,150
		c24.5,0,49-3.1,71.7-9.6V632.4z"/>
	<polygon class="st25" points="1400.1,865.1 1400.1,853.2 1328.5,899.4 1328,711 1320.3,719.6 1314.8,866 1203.2,784.9 
		1203.2,789.7 1314.8,879.4 1311.5,980 1330.3,980 1328.5,915.2 	"/>
</g>
<g>
	<path class="st6" d="M1237.6,979.6c0-0.4,0-0.9,0-1.3c0-119.7-103.3-217.2-208.1-217.2c-104.3,0-207,99.6-207.9,218.5H1237.6z"/>
	<polygon class="st25" points="1029.3,979.6 1029,867.6 1020.4,877.2 1016.6,979.6 	"/>
	<polygon class="st25" points="930.3,979.6 889.6,950.1 889.6,955.4 919.7,979.6 	"/>
</g>
<g>
	<path class="st24" d="M195.1,979.6c6.9-16.7,10.7-35.8,10.7-57.7c0-107.2-92.4-197.2-186.2-197.2c-6.5,0-13,0.4-19.4,1.2v253.6
		H195.1z"/>
	<polygon class="st25" points="44.3,979.6 144.8,898.8 144.8,894 33.2,975.1 27.7,828.7 20,820.1 19.6,979.6 	"/>
</g>
<g>
	<path class="st6" d="M500.6,979.6c-38.4-64.7-107.2-109-176.8-109c-70.4,0-140,43.9-178.2,109H500.6z"/>
</g>
</svg>
