<?xml version="1.0" encoding="utf-8"?>
<!-- Generator: Adobe Illustrator 18.1.1, SVG Export Plug-In . SVG Version: 6.00 Build 0)  -->
<svg version="1.1" id="Layer_1" xmlns="http://www.w3.org/2000/svg" xmlns:xlink="http://www.w3.org/1999/xlink" x="0px" y="0px"
	 viewBox="0 0 600 500" enable-background="new 0 0 600 500" xml:space="preserve">
<rect y="-0.5" fill="#82CACD" width="600" height="474.6"/>
<path fill="#FFFFFF" d="M246.5,189c0,4.1-1.1,7.9-3,11.2c-3.2,5.5-8.6,9.4-15,10.8c-0.9,0.2-1.8,0.2-2.7,0.2H93.1
	c-0.8,0-1.4,0-2-0.2c-0.6,0-1.4,0.2-2,0.2c-12.3,0-22.5-10-22.5-22.5c0-12.3,10-22.5,22.5-22.5c1.2,0,2.4,0.2,3.5,0.3
	c-0.8-5.2-0.5-10.6,1.1-16.1c5.9-20.3,27.2-32.2,47.5-26.3c10.3,3,18.5,9.9,23.2,18.7c4.9-2.9,10.5-4.7,16.7-4.7
	c17.4,0,31.6,14,32,31.3c3.3-2,7.1-3,11.2-3C236.5,166.7,246.5,176.7,246.5,189z"/>
<path fill="#FFFFFF" d="M357.8,105.1c0,2.8-0.7,5.3-2,7.6c-2.1,3.7-5.8,6.3-10.1,7.3c-0.6,0.1-1.2,0.1-1.8,0.1h-89.5
	c-0.5,0-0.9,0-1.3-0.1c-0.4,0-0.9,0.1-1.3,0.1c-8.3,0-15.1-6.8-15.1-15.1c0-8.3,6.8-15.1,15.1-15.1c0.8,0,1.6,0.1,2.4,0.2
	c-0.5-3.5-0.3-7.2,0.7-10.8c3.9-13.7,18.2-21.6,32-17.6c7,2,12.5,6.7,15.7,12.6c3.3-1.9,7.1-3.2,11.3-3.2c11.8,0,21.3,9.4,21.6,21.1
	c2.3-1.3,4.8-2,7.6-2C351,89.9,357.8,96.7,357.8,105.1z"/>
<g>
	<g>
		<polygon fill="none" stroke="#205D76" stroke-width="0.8126" stroke-miterlimit="10" points="352.4,420.3 342.4,420.3 
			342.4,423.8 352.4,423.8 351.2,422 		"/>
		<polygon fill="none" stroke="#205D76" stroke-width="0.8126" stroke-miterlimit="10" points="324.7,424.4 324.7,427.8 
			334.6,427.8 333.4,426 334.6,424.4 		"/>
		<polygon fill="none" stroke="#205D76" stroke-width="0.8126" stroke-miterlimit="10" points="256.5,433.6 256.5,437.1 
			266.4,437.1 265.2,435.3 266.4,433.6 		"/>
		<circle fill="none" stroke="#205D76" stroke-width="0.8126" stroke-miterlimit="10" cx="256.5" cy="433.2" r="0.2"/>
		<circle fill="none" stroke="#205D76" stroke-width="0.8126" stroke-miterlimit="10" cx="324.6" cy="423.9" r="0.3"/>
		<circle fill="none" stroke="#205D76" stroke-width="0.8126" stroke-miterlimit="10" cx="342.4" cy="419.9" r="0.2"/>
		<path fill="none" stroke="#205D76" stroke-width="0.8126" stroke-miterlimit="10" d="M315,451.9"/>
		<path fill="none" stroke="#205D76" stroke-width="0.8126" stroke-miterlimit="10" d="M299.7,451.8h2v-6l2.9-1.2l2.8-1.2l2.8,1.2
			l2.7,1.2v6l3.1,0c0-8.5,0-9.8,0-9.9c0,0,1.9-0.9,2.1-1c0.8-0.5,1.5-1.1,2.1-1.8c1.2-1.4,1.5-2.9,1.5-4.7c0-1.7,1.4-3,3-3
			c0.8,0,1.6,0.3,2.1,0.9c0.5,0.5,0.9,1.3,0.9,2.1c0,1.9,0.4,3.3,1.6,4.7c1.2,1.3,2.7,2.3,4.4,2.7v-3.6v-0.9v-1.2v-4.5v-0.1h4.9
			c0-2.1,1.7-3.7,3.8-3.7c2.1,0,3.8,1.7,3.8,3.7h5.1v0.1v4.5v1.2v0.9V473h-5.9v0h-5.9v0h-5.9v0.1h-5.1v0h-8v0h-4.7c0,0,0,0,0-0.1
			h-6.9h-3.5h-6.8v0H280v0.1h-14.6l-7.4-0.1h-3.1h-7.3v-25.4h0l4.5-3.5l4.4-3.5l4.4,3.5l4.5,3.5v5.8l2.5-3.8h0v-2.9l1-0.5l1-0.5
			l1,0.5l1,0.5v2.9h1.8v-2.7l1-0.5l1-0.5l1,0.5l1,0.5v2.9l2.4,3.6v-8.6"/>
		<path fill="none" stroke="#205D76" stroke-width="0.8126" stroke-miterlimit="10" d="M304.1,346.4h-0.5h-11.4h-2.1
			c0.1,0.1,0.1,0.2,0.1,0.4c0,0.2-0.1,0.4-0.2,0.5c0,1.8,0.1,3.8,0.1,6c0,0.8,0,1.7,0,2.5c0.6,0.1,1,0.2,1,0.4c0,0.2-0.4,0.3-1,0.4
			l2.9,5.1c0.9,0.2,1.5,0.4,1.5,0.6c0,0.2-0.3,0.3-0.8,0.5l1.4,2.4l4,6.9c1.6,0.5,2.6,1.1,2.6,1.8c0,0.7-1.1,1.1-2.9,1.2v8h0v1.5h0
			c0,0,0,0.1,0,0.1c0,0.1,0,0.2,0,0.2v53.1v0.1v0.6v1.1v1.5l-0.1,10.8l3,0"/>
		<line fill="none" stroke="#205D76" stroke-width="0.8126" stroke-miterlimit="10" x1="272.8" y1="441" x2="272.8" y2="444.5"/>
		<path fill="none" stroke="#205D76" stroke-width="0.8126" stroke-miterlimit="10" d="M304.1,341.9L304.1,341.9h-14.4
			c0-0.1,0-0.3,0-0.4c0.3-0.1,0.5-0.3,0.5-0.6c0-0.3-0.3-0.6-0.6-0.6c-0.3,0-0.6,0.3-0.6,0.6c0,0.3,0.2,0.5,0.5,0.6
			c-0.1,1-0.2,2.8-0.3,5.2c-0.2,0.1-0.3,0.3-0.3,0.6c0,0.2,0.1,0.4,0.2,0.5c0,1.8-0.1,3.8-0.1,6c0,0.8,0,1.7,0,2.5
			c-0.6,0.1-1,0.2-1,0.4c0,0.2,0.4,0.3,1,0.4c0,0,0,0.1,0,0.1l-2.9,5c-1,0.2-1.6,0.4-1.6,0.6c0,0.2,0.4,0.4,1,0.5l-1.4,2.4l-3.9,6.8
			c-1.8,0.5-2.8,1.2-2.8,1.9c0,0.7,1,1,2.7,1.2v62.9v0.1v0.6v2.2"/>
		<polyline fill="none" stroke="#205D76" stroke-width="0.8126" stroke-miterlimit="10" points="265.5,453.5 265.5,453.4 
			265.4,453.4 		"/>
		<polyline fill="none" stroke="#205D76" stroke-width="0.8126" stroke-miterlimit="10" points="304.1,341.8 304.1,344.6 
			320.6,344.8 317.8,347.3 320.5,349.8 316.1,349.7 304.1,349.7 304.1,344.6 		"/>
		<circle fill="none" stroke="#205D76" stroke-width="0.8126" stroke-miterlimit="10" cx="272.8" cy="440.6" r="0.2"/>
		<polygon fill="none" stroke="#205D76" stroke-width="0.8126" stroke-miterlimit="10" points="307.4,435 307.4,438.5 317.3,438.5 
			316.2,436.7 317.3,435 		"/>
		<circle fill="none" stroke="#205D76" stroke-width="0.8126" stroke-miterlimit="10" cx="307.4" cy="434.5" r="0.2"/>
		<polygon fill="none" stroke="#205D76" stroke-width="0.8126" stroke-miterlimit="10" points="272.9,441.4 272.9,444.8 
			282.8,444.8 281.7,443 282.8,441.4 		"/>
	</g>
	<line fill="none" stroke="#205D76" stroke-width="0.8126" stroke-miterlimit="10" x1="256.5" y1="437.1" x2="256.5" y2="440.6"/>
	<line fill="none" stroke="#205D76" stroke-width="0.8126" stroke-miterlimit="10" x1="272.8" y1="444.5" x2="272.8" y2="449.7"/>
	<line fill="none" stroke="#205D76" stroke-width="0.8126" stroke-miterlimit="10" x1="307.4" y1="438.5" x2="307.4" y2="443.4"/>
	<line fill="none" stroke="#205D76" stroke-width="0.8126" stroke-miterlimit="10" x1="324.7" y1="427.8" x2="324.7" y2="431.5"/>
	<line fill="none" stroke="#205D76" stroke-width="0.8126" stroke-miterlimit="10" x1="342.4" y1="423.8" x2="342.4" y2="427.9"/>
</g>
<g>
	<path fill="#FFC122" d="M487.4,129.1c0.1,0,0.3,0,0.4,0.1c1.9,0.5,3.7,1,5.4,1.4c-1.7-0.7-3.5-1.2-5.4-1.4
		c-0.3-0.1-0.6-0.2-0.9-0.2c-0.3-0.1-0.6-0.2-0.9-0.3c-0.2,0-0.3-0.1-0.5-0.1c0.1,0,1.3,0.1,1.4,0.1c19.6,1.2,34.3,10.5,32,30.2
		c-2.5,22.3-31.2,50.3-31.2,50.3l-0.7,0.2c-0.1,0.1-0.1,0.2-0.1,0.2h-1.2c0,0,2-5.1,4.3-12.6c-3.6,7.7-6.5,12.8-6.5,12.8h-2.4
		c0,0,0,0-0.1-0.1l0,0c0,0-29.8-29.3-31.7-51.5c-1.4-16,11-26.3,27.5-28.6c2.1-0.3,4.3-0.5,6.5-0.5"/>
	<path fill="#FFC122" d="M484.4,128.9c0.1,0,0.2,0,0.3,0c0,0,0,0,0,0h0c0,0,0.1-0.4,0.1-0.4c4.5,0.5,28.6,3.1,28.7,22.6
		c0,22.5-27,58.4-27,58.4l-3,0"/>
	<path fill="#FFC122" d="M486.9,128.9c-0.3-0.1-0.6-0.2-0.9-0.3C486.3,128.7,486.6,128.8,486.9,128.9z"/>
	<path fill="#FFC122" d="M493.1,130.6c-1.7-0.5-3.4-0.9-5.4-1.4C489.6,129.4,491.4,129.9,493.1,130.6z"/>
	<path fill="#FFC122" d="M487.4,129.1c-0.8-0.1-1.5-0.2-2.3-0.2c-0.1,0-0.1-0.4-0.2-0.4c0.4,0,0.8,0.1,1.1,0.2
		c0.3,0.1,0.6,0.2,0.9,0.3C487,129,487.2,129.1,487.4,129.1z"/>
	<path fill="#FFC122" d="M493.1,130.6c-1.7-0.5-3.4-0.9-5.4-1.4C489.6,129.4,491.4,129.9,493.1,130.6z"/>
	<path fill="#FFC122" d="M484.5,128.5c-0.8,0-1.1,0.1-1.1,0.4c-2.2,0-4.4,0.2-6.5,0.5C479.5,128.8,482.1,128.5,484.5,128.5z"/>
	<path fill="#FFC122" d="M484.8,128.9C484.8,128.9,484.7,128.9,484.8,128.9L484.8,128.9C484.8,128.9,484.8,128.9,484.8,128.9z"/>
</g>
<g>
	<path fill="#FAF8DA" d="M481.2,209.1c0,0-24.5-28.7-24.5-51.4c0-18.3,12.2-29.1,27.4-29.2c-20,0.1-36,10.9-36,29.2
		c0,22.7,32.4,51.5,32.4,51.5L481.2,209.1z"/>
	<path fill="#FAF8DA" d="M484.6,128.5L484.6,128.5L484.6,128.5L484.6,128.5C484.5,128.5,484.5,128.5,484.6,128.5
		C484.5,128.5,484.5,128.5,484.6,128.5C484.5,128.5,484.5,128.5,484.6,128.5h-0.1C484.5,128.5,484.5,128.5,484.6,128.5
		c-4.7,0.1-8.5,10.9-8.5,29.2c0,22.7,7.5,51.4,7.5,51.4h1.9c0,0,7.5-28.9,7.5-51.4c-0.1-19.6-3.7-28.8-8.3-29.2
		c6.9,0.4,12.4,9.6,12.4,29.2c0,22.4-11.4,51.4-11.4,51.4h1.2c0,0,20.9-28.9,20.8-51.4C507.7,137.8,497.4,128.6,484.6,128.5
		L484.6,128.5c15.3,0.1,27.5,9.3,27.6,29.2c0.1,22.4-24.8,51.4-24.8,51.4l1,0c0,0,32.8-28.9,32.6-51.4
		C520.9,137.7,504.7,128.5,484.6,128.5z"/>
	<path fill="#FAF8DA" d="M461.1,157.7c0,22.7,20.7,51.4,20.7,51.4h1.2c0,0-11.4-28.7-11.4-51.4c0-18.4,5.7-29.2,12.8-29.2
		C471.5,128.5,461.1,139.3,461.1,157.7z"/>
	<rect x="480.4" y="209.1" fill="#FAF8DA" width="0.8" height="4.2"/>
	<rect x="487.5" y="209.1" fill="#FAF8DA" width="0.9" height="4.2"/>
	<path fill="#664D25" d="M489.2,212.8h-9.6c-0.2,0-0.5,0.2-0.5,0.5v6.9c0,0.2,0.2,0.5,0.5,0.5h9.6c0.2,0,0.5-0.2,0.5-0.5v-6.9
		C489.7,213.1,489.5,212.8,489.2,212.8z"/>
	<rect x="480.4" y="209.1" fill="#FAF8DA" width="8" height="0.8"/>
</g>
<g>
	<ellipse fill="none" stroke="#205D76" stroke-width="0.8" stroke-miterlimit="10" cx="66.6" cy="429.5" rx="18.3" ry="26.5"/>
	
		<polyline fill="none" stroke="#205D76" stroke-width="0.8" stroke-linecap="round" stroke-linejoin="round" stroke-miterlimit="10" points="
		65.8,423.1 65.8,439.8 65.8,470.1 	"/>
	<path fill="none" stroke="#205D76" stroke-width="0.8" stroke-linecap="round" stroke-linejoin="round" stroke-miterlimit="10" d="
		M56.2,427.9c2.6,10,7,10.4,9.6,9.1"/>
	<path fill="none" stroke="#205D76" stroke-width="0.8" stroke-linecap="round" stroke-linejoin="round" stroke-miterlimit="10" d="
		M65.8,445.3c0,0,8.3,0.4,9.1-7"/>
</g>
<g>
	<ellipse fill="none" stroke="#205D76" stroke-width="0.8" stroke-miterlimit="10" cx="143.6" cy="445.9" rx="18.3" ry="16.7"/>
	
		<polyline fill="none" stroke="#205D76" stroke-width="0.8" stroke-linecap="round" stroke-linejoin="round" stroke-miterlimit="10" points="
		142.8,441.9 142.8,452.4 142.8,471.4 	"/>
	<path fill="none" stroke="#205D76" stroke-width="0.8" stroke-linecap="round" stroke-linejoin="round" stroke-miterlimit="10" d="
		M133.2,444.9c2.6,6.3,7,6.5,9.6,5.7"/>
	<path fill="none" stroke="#205D76" stroke-width="0.8" stroke-linecap="round" stroke-linejoin="round" stroke-miterlimit="10" d="
		M142.8,455.8c0,0,8.3,0.3,9.1-4.4"/>
</g>
<path fill="none" stroke="#205D76" stroke-linecap="round" stroke-linejoin="round" stroke-miterlimit="10" d="M99.1,314.6
	c3.7-8,12.1-10.4,19.7-6.1c1,0.6,1.9,1.3,2.9,1.8c0.4-1,0.6-2.3,0.9-3.3c0.9-2.9,1.9-6,4.2-7.9c3-2.5,7.6-2.4,11-0.5"/>
<path fill="none" stroke="#205D76" stroke-linecap="round" stroke-linejoin="round" stroke-miterlimit="10" d="M161.8,323.3
	c7.8-4,16-0.8,19.4,7.3c0.4,1.1,0.7,2.2,1.2,3.2c0.9-0.5,1.8-1.4,2.7-2.1c2.5-1.8,5.1-3.6,8.2-3.7c3.9-0.1,7.4,2.7,9,6.3"/>
<path fill="none" stroke="#205D76" stroke-linecap="round" stroke-linejoin="round" stroke-miterlimit="10" d="M165.9,281.4
	c5.5-6.9,14.2-7.4,20.6-1.4c0.8,0.8,1.6,1.7,2.4,2.4c0.6-0.8,1.1-2.1,1.6-3c1.5-2.6,3.2-5.4,5.9-6.7c3.5-1.7,7.9-0.6,10.8,2"/>
<g>
	<ellipse fill="none" stroke="#205D76" stroke-width="0.8" stroke-miterlimit="10" cx="525.6" cy="428.5" rx="18.3" ry="26.5"/>
	
		<polyline fill="none" stroke="#205D76" stroke-width="0.8" stroke-linecap="round" stroke-linejoin="round" stroke-miterlimit="10" points="
		526.5,469.1 526.5,438.8 526.5,422.1 	"/>
	<path fill="none" stroke="#205D76" stroke-width="0.8" stroke-linecap="round" stroke-linejoin="round" stroke-miterlimit="10" d="
		M526.5,436c2.6,1.3,7,0.9,9.6-9.1"/>
	<path fill="none" stroke="#205D76" stroke-width="0.8" stroke-linecap="round" stroke-linejoin="round" stroke-miterlimit="10" d="
		M517.3,437.3c0.9,7.4,9.1,7,9.1,7"/>
</g>
<g>
	<ellipse fill="none" stroke="#205D76" stroke-width="0.8" stroke-miterlimit="10" cx="448.6" cy="444.9" rx="18.3" ry="16.7"/>
	
		<polyline fill="none" stroke="#205D76" stroke-width="0.8" stroke-linecap="round" stroke-linejoin="round" stroke-miterlimit="10" points="
		449.4,470.4 449.4,451.4 449.4,440.9 	"/>
	<path fill="none" stroke="#205D76" stroke-width="0.8" stroke-linecap="round" stroke-linejoin="round" stroke-miterlimit="10" d="
		M449.4,449.6c2.6,0.8,7,0.6,9.6-5.7"/>
	<path fill="none" stroke="#205D76" stroke-width="0.8" stroke-linecap="round" stroke-linejoin="round" stroke-miterlimit="10" d="
		M440.3,450.4c0.9,4.7,9.1,4.4,9.1,4.4"/>
</g>
<path fill="#FFFFFF" d="M480.2,182.7c0,2.5-0.7,4.9-1.9,6.9c-2,3.4-5.3,5.8-9.3,6.6c-0.6,0.1-1.1,0.1-1.7,0.1h-81.7
	c-0.5,0-0.8,0-1.2-0.1c-0.4,0-0.8,0.1-1.2,0.1c-7.6,0-13.8-6.2-13.8-13.8c0-7.6,6.2-13.8,13.8-13.8c0.7,0,1.5,0.1,2.2,0.2
	c-0.5-3.2-0.3-6.5,0.7-9.9c3.6-12.5,16.7-19.8,29.3-16.2c6.4,1.9,11.4,6.1,14.3,11.5c3-1.8,6.5-2.9,10.3-2.9
	c10.8,0,19.4,8.6,19.7,19.3c2.1-1.2,4.4-1.9,6.9-1.9C474.1,168.9,480.2,175,480.2,182.7z"/>
<rect y="468.9" fill="#A2A242" width="600" height="30.7"/>
</svg>
